<?xml version="1.0" standalone="no"?>
<!DOCTYPE svg PUBLIC "-//W3C//DTD SVG 20010904//EN"
 "http://www.w3.org/TR/2001/REC-SVG-20010904/DTD/svg10.dtd">
<svg version="1.0" xmlns="http://www.w3.org/2000/svg"
 width="300.000000pt" height="93.000000pt" viewBox="0 0 300.000000 93.000000"
 preserveAspectRatio="xMidYMid meet">
<metadata>
Created by potrace 1.10, written by Peter Selinger 2001-2011
</metadata>
<g transform="translate(0.000000,93.000000) scale(0.100000,-0.100000)"
fill="#000000" stroke="none">
<path d="M77 821 c-15 -25 -15 -30 -1 -49 10 -14 26 -22 45 -22 36 0 35 -8
-17 -111 -63 -127 -66 -196 -9 -249 13 -13 29 -38 35 -56 7 -19 16 -34 22 -34
6 0 7 7 4 15 -3 8 -9 23 -13 32 -5 13 -3 15 13 9 35 -15 104 -19 104 -7 0 6
-15 11 -32 11 -76 0 -148 69 -148 140 0 22 16 69 40 119 22 45 40 93 40 106 0
13 5 27 10 30 22 14 8 23 -19 12 -25 -9 -33 -8 -51 8 -18 17 -19 20 -5 41 8
13 11 25 7 28 -5 3 -16 -8 -25 -23z"/>
<path d="M600 775 c-48 -51 -11 -135 59 -135 31 0 70 24 58 36 -4 4 -13 2 -19
-4 -18 -18 -63 -14 -81 6 -21 23 -22 66 -1 86 18 19 65 21 82 4 17 -17 28 -2
12 17 -20 25 -83 19 -110 -10z"/>
<path d="M754 786 c-3 -7 -4 -42 -2 -77 l3 -64 39 -3 c21 -2 43 1 49 7 8 8 -1
11 -31 11 -40 0 -42 1 -42 30 0 28 3 30 35 30 19 0 35 5 35 10 0 6 -16 10 -35
10 -28 0 -35 4 -35 20 0 17 7 20 41 20 24 0 38 4 34 10 -9 15 -85 12 -91 -4z"/>
<path d="M968 744 l-3 -56 -40 50 c-22 28 -44 51 -50 52 -6 0 -10 -28 -9 -68
0 -37 5 -67 10 -67 5 0 8 23 8 50 l-2 50 47 -52 c26 -29 51 -53 54 -53 4 0 7
34 7 75 0 87 -18 102 -22 19z"/>
<path d="M1010 790 c0 -5 7 -10 15 -10 12 0 15 -14 15 -70 0 -40 4 -70 10 -70
6 0 10 30 10 70 0 56 3 70 15 70 8 0 15 5 15 10 0 6 -18 10 -40 10 -22 0 -40
-4 -40 -10z"/>
<path d="M1110 720 c0 -47 4 -80 10 -80 6 0 10 17 10 38 l1 37 34 -40 c18 -22
37 -36 41 -32 4 4 -6 21 -21 37 -29 31 -29 31 -7 37 26 6 39 47 22 68 -7 9
-29 15 -51 15 l-39 0 0 -80z m75 35 c0 -14 -8 -21 -27 -23 -24 -3 -28 0 -28
23 0 23 4 26 28 23 19 -2 27 -9 27 -23z"/>
<path d="M1272 793 c-16 -6 -42 -56 -42 -81 0 -11 11 -31 25 -46 49 -53 135
-19 135 53 0 61 -59 98 -118 74z m82 -29 c35 -34 8 -104 -41 -104 -27 0 -63
33 -63 58 0 52 68 82 104 46z"/>
<path d="M349 744 c-28 -35 -17 -113 29 -208 70 -142 67 -182 -19 -276 -84
-92 -122 -140 -116 -147 7 -7 160 152 189 196 33 49 24 121 -28 226 -50 101
-63 160 -44 194 15 28 8 37 -11 15z"/>
<path d="M2022 737 c-18 -19 -22 -35 -22 -91 l0 -68 -30 6 c-27 5 -30 3 -30
-19 0 -21 5 -25 30 -25 l30 0 0 -195 0 -195 25 0 25 0 0 195 0 195 50 0 c46 0
50 2 46 23 -3 20 -8 22 -50 19 l-46 -4 0 55 c0 66 15 82 66 74 34 -6 35 -5 32
21 -3 25 -7 27 -53 30 -43 2 -54 -1 -73 -21z"/>
<path d="M2691 668 l2 -83 -39 0 c-33 0 -40 -4 -42 -22 -3 -21 1 -23 40 -23
l43 0 -3 -195 -3 -195 31 0 31 0 -3 196 -3 195 45 -3 c42 -2 45 -1 45 22 0 23
-4 25 -44 25 l-44 0 2 83 2 82 -31 0 -31 0 2 -82z"/>
<path d="M164 615 c-3 -19 -13 -37 -23 -40 -26 -8 -43 -44 -36 -77 16 -69 110
-131 150 -98 30 25 13 99 -25 112 -6 2 -12 12 -14 23 -2 11 -9 31 -15 45 -11
24 -11 24 -7 -7 5 -28 2 -32 -22 -36 -26 -4 -26 -4 -4 -12 16 -5 21 -13 17
-26 -7 -22 20 -27 29 -6 9 22 44 -29 39 -58 -7 -36 -55 -35 -93 4 -50 50 -51
112 -1 119 14 2 21 11 21 25 0 12 3 32 6 45 4 13 2 22 -4 22 -6 0 -14 -16 -18
-35z"/>
<path d="M730 588 c-60 -10 -119 -54 -150 -108 -20 -36 -25 -58 -24 -110 2
-181 166 -279 332 -199 45 22 98 84 108 126 7 27 7 28 -23 37 -18 6 -23 1 -32
-27 -6 -19 -24 -45 -39 -59 -68 -64 -142 -75 -209 -31 -46 30 -93 101 -71 107
7 2 60 16 118 31 58 15 130 34 160 42 30 9 65 18 78 22 l22 6 -32 55 c-54 89
-137 127 -238 108z m115 -58 c26 -10 80 -68 72 -76 -6 -6 -210 -63 -289 -80
-26 -6 -26 -5 -18 27 12 56 29 83 65 107 58 40 106 46 170 22z"/>
<path d="M2320 588 c-66 -12 -120 -54 -153 -118 -24 -47 -28 -63 -24 -113 6
-70 43 -137 98 -177 107 -77 271 -32 333 91 24 50 25 54 9 61 -33 12 -41 8
-52 -25 -21 -61 -100 -117 -167 -117 -46 0 -103 32 -131 73 -38 56 -37 56 97
92 216 57 243 65 248 70 10 10 -32 87 -61 111 -61 51 -119 67 -197 52z m120
-64 c19 -9 45 -29 58 -45 l23 -28 -28 -6 c-15 -4 -86 -22 -157 -41 -70 -19
-132 -34 -136 -34 -14 0 7 70 31 105 31 45 107 78 154 68 11 -2 36 -11 55 -19z"/>
<path d="M1155 562 c-72 -39 -108 -96 -113 -176 -2 -35 1 -79 7 -98 25 -74
136 -148 225 -148 54 0 130 28 171 63 l38 33 -25 16 c-24 16 -27 16 -44 -4
-50 -54 -140 -72 -211 -43 -50 21 -72 42 -94 90 -50 108 14 224 139 250 43 9
137 -21 161 -52 22 -26 29 -28 54 -9 17 13 17 15 -9 41 -71 71 -207 88 -299
37z"/>
<path d="M1609 570 c-49 -26 -107 -95 -115 -137 -12 -65 0 -149 29 -192 62
-93 198 -126 297 -71 156 87 152 318 -7 399 -55 28 -153 28 -204 1z m187 -55
c72 -42 103 -139 70 -218 -18 -44 -78 -95 -121 -103 -79 -15 -168 38 -194 115
-16 50 -14 89 10 138 42 87 149 118 235 68z"/>
<path d="M174 296 c-43 -53 -80 -156 -56 -156 4 0 13 19 20 43 10 39 25 66 68
125 27 36 -2 25 -32 -12z"/>
</g>
</svg>
