 <svg  version="1.0" xmlns="http://www.w3.org/2000/svg"  width="300.000000pt" height="93.000000pt" viewBox="0 0 300.000000 93.000000"  preserveAspectRatio="xMidYMid meet">  <g transform="translate(0.000000,93.000000) scale(0.100000,-0.100000)" fill="#c8a46a" stroke="none"> <path d="M82 822 c-19 -26 -20 -31 -6 -50 10 -14 26 -22 45 -22 27 0 29 -2 23 -27 -4 -16 -24 -62 -45 -103 -20 -41 -40 -90 -44 -107 -8 -42 10 -97 39 -121 13 -9 28 -34 35 -55 7 -20 17 -37 23 -37 6 0 7 7 4 15 -3 8 -9 23 -13 32 -5 13 -3 15 12 9 38 -14 105 -19 105 -7 0 6 -15 11 -32 11 -76 0 -148 69 -148 141 0 23 15 70 40 123 22 47 40 93 40 102 0 10 8 26 18 37 16 20 16 20 -3 12 -42 -16 -62 -16 -79 0 -16 16 -16 19 -1 42 24 35 11 40 -13 5z"/> <path d="M602 777 c-14 -15 -22 -36 -22 -59 0 -67 79 -102 131 -58 20 16 21 19 7 20 -9 0 -20 -4 -23 -10 -7 -12 -55 -13 -72 -2 -33 21 -32 82 1 104 16 11 64 10 71 -2 3 -5 13 -10 22 -10 14 0 14 3 -2 20 -26 29 -85 27 -113 -3z"/> <path d="M757 792 c-3 -4 -4 -39 -4 -77 l2 -70 39 -3 c21 -2 43 1 49 7 8 8 -1 11 -31 11 -40 0 -42 1 -42 31 0 29 2 30 35 28 19 -2 35 1 34 6 0 6 -15 9 -34 9 -30 -1 -35 2 -35 22 0 21 5 24 41 24 24 0 38 4 34 10 -7 12 -82 14 -88 2z"/> <path d="M869 793 c-2 -4 -2 -42 1 -83 4 -51 8 -69 14 -57 5 10 6 36 2 57 -4 25 -2 40 4 40 5 0 10 -3 10 -7 1 -5 21 -30 45 -58 l45 -49 0 82 c0 48 -4 82 -10 82 -5 0 -10 -26 -10 -57 -1 -65 6 -67 -66 21 -18 21 -33 34 -35 29z"/> <path d="M1005 790 c-3 -5 3 -10 14 -10 19 0 21 -6 21 -70 0 -40 4 -70 10 -70 6 0 10 30 10 70 0 56 3 70 15 70 8 0 15 5 15 10 0 6 -18 10 -39 10 -22 0 -43 -4 -46 -10z"/> <path d="M1110 720 c0 -47 4 -80 10 -80 6 0 10 16 10 35 0 44 9 44 38 0 12 -19 27 -35 32 -35 17 0 11 15 -15 40 -30 28 -32 40 -5 40 13 0 22 9 26 27 9 33 -15 53 -63 53 l-33 0 0 -80z m75 35 c0 -14 -8 -21 -27 -23 -24 -3 -28 0 -28 23 0 23 4 26 28 23 19 -2 27 -9 27 -23z"/> <path d="M1272 793 c-16 -6 -42 -56 -42 -81 0 -29 48 -72 80 -72 45 0 80 35 80 79 0 61 -59 98 -118 74z m82 -29 c9 -8 16 -28 16 -44 0 -36 -23 -60 -57 -60 -55 0 -83 62 -46 102 20 22 66 24 87 2z"/> <path d="M349 744 c-27 -33 -16 -112 30 -205 44 -90 57 -142 47 -183 -3 -14 -34 -58 -69 -98 -105 -121 -119 -139 -114 -144 6 -6 164 156 189 195 32 48 24 116 -27 221 -50 102 -64 164 -45 199 15 28 8 37 -11 15z"/> <path d="M2022 737 c-18 -19 -22 -35 -22 -91 l0 -68 -30 6 c-27 5 -30 3 -30 -19 0 -21 5 -25 30 -25 l30 0 0 -195 0 -195 25 0 25 0 0 195 0 195 48 0 c44 0 49 2 47 22 -1 20 -6 22 -48 19 l-47 -3 0 55 c0 66 15 82 66 74 34 -6 35 -5 32 21 -3 25 -7 27 -53 30 -43 2 -54 -1 -73 -21z m28 -176 c0 -5 -6 -14 -14 -20 -17 -14 -39 9 -30 33 5 12 10 13 25 5 10 -5 19 -13 19 -18z"/> <path d="M2690 664 l0 -86 -37 4 c-33 3 -38 0 -41 -20 -3 -20 1 -22 37 -22 l41 0 0 -195 0 -195 30 0 31 0 -3 195 -3 195 48 0 c44 0 48 2 45 22 -3 18 -10 22 -47 22 l-44 1 2 83 2 82 -30 0 -31 0 0 -86z m45 -113 c-12 -12 -17 -12 -30 -1 -14 11 -14 14 2 25 24 18 48 -3 28 -24z"/> <path d="M166 616 c-4 -20 -14 -37 -24 -40 -27 -9 -44 -44 -37 -78 16 -69 110 -131 150 -98 20 16 19 74 -1 94 -26 26 -36 18 -14 -11 47 -65 -22 -103 -80 -44 -50 50 -51 112 -2 119 12 2 20 10 20 20 0 9 3 29 7 45 4 16 3 27 -3 27 -5 0 -13 -15 -16 -34z"/> <path d="M194 578 c4 -35 3 -38 -20 -38 -13 0 -24 -4 -24 -10 0 -5 12 -10 26 -10 22 0 24 -2 14 -15 -6 -8 -8 -19 -4 -26 5 -8 11 -4 20 13 14 26 13 40 -6 93 -10 30 -10 29 -6 -7z"/> <path d="M731 589 c-156 -30 -229 -215 -138 -350 12 -18 43 -47 67 -64 89 -60 236 -32 301 58 27 38 46 84 38 91 -2 2 -14 6 -25 10 -17 5 -23 2 -28 -18 -22 -89 -156 -153 -234 -112 -53 28 -116 113 -90 120 7 2 60 16 118 31 58 15 140 37 182 49 l77 22 -29 51 c-52 90 -139 131 -239 112z m119 -64 c29 -15 76 -63 68 -70 -5 -6 -294 -85 -308 -85 -9 0 1 44 20 90 12 28 64 67 106 79 33 10 78 4 114 -14z m103 -86 c-9 -9 -12 -7 -10 9 1 14 5 18 11 12 7 -7 6 -14 -1 -21z m-342 -91 c11 -8 10 -9 -3 -4 -11 3 -15 1 -12 -8 3 -8 1 -17 -5 -21 -7 -4 -11 7 -11 32 0 25 3 33 9 24 5 -7 15 -18 22 -23z"/> <path d="M1240 590 c-87 -12 -160 -67 -190 -145 -15 -37 -14 -122 0 -161 15 -39 77 -102 118 -119 92 -39 206 -24 276 38 l39 33 -25 16 c-24 16 -27 16 -44 -4 -50 -54 -140 -72 -211 -43 -50 21 -72 42 -94 90 -49 106 10 217 130 247 50 13 143 -13 170 -49 21 -26 29 -28 53 -9 17 12 16 15 -5 38 -45 51 -133 79 -217 68z m-173 -272 c-3 -8 -6 -5 -6 6 -1 11 2 17 5 13 3 -3 4 -12 1 -19z"/> <path d="M2320 589 c-66 -13 -120 -55 -153 -119 -24 -47 -28 -63 -24 -112 13 -147 141 -244 277 -209 68 18 120 59 152 120 16 30 27 55 26 56 -2 1 -15 5 -30 9 -23 5 -28 2 -37 -27 -21 -61 -100 -117 -167 -117 -49 0 -105 34 -137 82 -28 43 -27 58 2 58 9 0 55 11 101 24 47 13 122 34 168 47 45 12 82 27 82 31 0 23 -43 90 -72 111 -65 48 -114 60 -188 46z m120 -65 c14 -6 38 -26 53 -42 l29 -30 -34 -7 c-37 -8 -276 -73 -297 -80 -9 -4 -10 -9 -3 -18 7 -8 7 -18 2 -27 -8 -13 -10 -12 -14 0 -13 44 -13 57 2 56 10 -1 18 11 23 32 23 109 141 166 239 116z m98 -61 c9 -16 9 -22 -1 -26 -8 -3 -12 6 -13 25 -1 32 -1 32 14 1z m-34 -248 c-4 -8 -11 -15 -16 -15 -6 0 -5 6 2 15 7 8 14 15 16 15 2 0 1 -7 -2 -15z"/> <path d="M1609 570 c-51 -27 -107 -92 -115 -135 -3 -20 -4 -62 -2 -94 15 -208 295 -272 408 -94 39 60 46 117 26 185 -31 102 -109 158 -218 158 -42 -1 -75 -7 -99 -20z m187 -55 c95 -56 111 -190 32 -272 -107 -111 -288 -28 -288 133 0 47 36 107 82 137 55 36 115 36 174 2z m84 -35 c0 -5 -2 -10 -4 -10 -3 0 -8 5 -11 10 -3 6 -1 10 4 10 6 0 11 -4 11 -10z"/> <path d="M177 298 c-32 -43 -53 -85 -62 -125 -10 -49 9 -40 23 10 10 39 25 66 68 125 9 12 12 22 6 22 -6 0 -22 -15 -35 -32z"/> </g> </svg> 